# xmcd
#
# Track frame offsets:
# 150
# 18842
# 34248
# 56057
# 80432
# 103393
# 123344
# 142170
# 159482
# 176116
# 194124
# 208808
# 230684
# 264147
# 277497
# 292099
# 313136
#
# Disc length: 4334 seconds
#
# Revision: 0
# Processed by: cddbd v1.5PL3 Copyright (c) Steve Scherf et al.
# Submitted via: Audion 3.0.2 (http://www.panic.com/audion/)
#
DISCID=1510ec11
DTITLE=Good Whiskey Blues - From The White Blues (vol.15)
DYEAR=1900
DGENRE=
TTITLE0=I Can't Win
TTITLE1=Can I Walk You Home
TTITLE2=Cold Hearted Woman
TTITLE3=Woman Trouble
TTITLE4=You Got A Love
TTITLE5=Roll Me
TTITLE6=Ripped The Heart
TTITLE7=Trust Me
TTITLE8=Tell Me When
TTITLE9=High Ball
TTITLE10=What A Woman Can Do
TTITLE11=Heartbreaker
TTITLE12=She's Gone
TTITLE13=Road Bloak
TTITLE14=All My Whole Life
TTITLE15=Give Me One More Time
TTITLE16=Hoodoo Woman
EXTD=
EXTT0=
EXTT1=
EXTT2=
EXTT3=
EXTT4=
EXTT5=
EXTT6=
EXTT7=
EXTT8=
EXTT9=
EXTT10=
EXTT11=
EXTT12=
EXTT13=
EXTT14=
EXTT15=
EXTT16=
PLAYORDER=
